<svg width="33" height="33" viewBox="0 0 33 33" fill="none" xmlns="http://www.w3.org/2000/svg">
<path d="M4.125 28.875C3.73542 28.875 3.40863 28.743 3.14463 28.479C2.88063 28.215 2.74909 27.8887 2.75 27.5C2.75 27.1104 2.882 26.7836 3.146 26.5196C3.41 26.2556 3.73634 26.1241 4.125 26.125H28.875C29.2646 26.125 29.5914 26.257 29.8554 26.521C30.1194 26.785 30.2509 27.1113 30.25 27.5C30.25 27.8896 30.118 28.2164 29.854 28.4804C29.59 28.7444 29.2637 28.8759 28.875 28.875H4.125ZM6.18751 24.75C5.61459 24.75 5.12738 24.5493 4.72588 24.1478C4.32438 23.7463 4.12409 23.2595 4.125 22.6875V17.1875C4.125 16.6146 4.32575 16.1274 4.72725 15.7259C5.12875 15.3244 5.6155 15.1241 6.18751 15.125C6.76042 15.125 7.24763 15.3258 7.64913 15.7273C8.05063 16.1288 8.25092 16.6155 8.25 17.1875V22.6875C8.25 23.2604 8.04925 23.7476 7.64775 24.1491C7.24625 24.5506 6.7595 24.7509 6.18751 24.75ZM13.0625 24.75C12.4896 24.75 12.0024 24.5493 11.6009 24.1478C11.1994 23.7463 10.9991 23.2595 11 22.6875V10.3125C11 9.73959 11.2008 9.25238 11.6023 8.85088C12.0038 8.44938 12.4905 8.24909 13.0625 8.25C13.6354 8.25 14.1226 8.45075 14.5241 8.85225C14.9256 9.25375 15.1259 9.7405 15.125 10.3125V22.6875C15.125 23.2604 14.9243 23.7476 14.5228 24.1491C14.1213 24.5506 13.6345 24.7509 13.0625 24.75ZM19.9375 24.75C19.3646 24.75 18.8774 24.5493 18.4759 24.1478C18.0744 23.7463 17.8741 23.2595 17.875 22.6875V14.4375C17.875 13.8646 18.0758 13.3774 18.4773 12.9759C18.8788 12.5744 19.3655 12.3741 19.9375 12.375C20.5104 12.375 20.9976 12.5758 21.3991 12.9773C21.8006 13.3788 22.0009 13.8655 22 14.4375V22.6875C22 23.2604 21.7993 23.7476 21.3978 24.1491C20.9963 24.5506 20.5095 24.7509 19.9375 24.75ZM26.8125 24.75C26.2396 24.75 25.7524 24.5493 25.3509 24.1478C24.9494 23.7463 24.7491 23.2595 24.75 22.6875V6.1875C24.75 5.61459 24.9508 5.12738 25.3523 4.72588C25.7538 4.32438 26.2405 4.12409 26.8125 4.125C27.3854 4.125 27.8726 4.32575 28.2741 4.72725C28.6756 5.12875 28.8759 5.6155 28.875 6.1875V22.6875C28.875 23.2604 28.6743 23.7476 28.2728 24.1491C27.8713 24.5506 27.3845 24.7509 26.8125 24.75Z" fill="white"/>
</svg>
