<svg width="27" height="25" viewBox="0 0 27 25" fill="none" xmlns="http://www.w3.org/2000/svg">
<path d="M10.6667 10.6667C9.2 10.6667 7.94445 10.1444 6.9 9.1C5.85556 8.05556 5.33334 6.8 5.33334 5.33333C5.33334 3.86667 5.85556 2.61111 6.9 1.56667C7.94445 0.522222 9.2 0 10.6667 0C12.1333 0 13.3889 0.522222 14.4333 1.56667C15.4778 2.61111 16 3.86667 16 5.33333C16 6.8 15.4778 8.05556 14.4333 9.1C13.3889 10.1444 12.1333 10.6667 10.6667 10.6667ZM24.5333 25.0667L21.2 21.7333C20.7333 22 20.2333 22.2222 19.7 22.4C19.1667 22.5778 18.6 22.6667 18 22.6667C16.3333 22.6667 14.9169 22.0831 13.7507 20.916C12.5844 19.7489 12.0009 18.3324 12 16.6667C12 15 12.5836 13.5831 13.7507 12.416C14.9178 11.2489 16.3342 10.6658 18 10.6667C19.6667 10.6667 21.0836 11.2502 22.2507 12.4173C23.4178 13.5844 24.0009 15.0009 24 16.6667C24 17.2667 23.9111 17.8333 23.7333 18.3667C23.5556 18.9 23.3333 19.4 23.0667 19.8667L26.4 23.2C26.6444 23.4444 26.7667 23.7556 26.7667 24.1333C26.7667 24.5111 26.6444 24.8222 26.4 25.0667C26.1556 25.3111 25.8444 25.4333 25.4667 25.4333C25.0889 25.4333 24.7778 25.3111 24.5333 25.0667ZM18 20C18.9333 20 19.7222 19.6778 20.3667 19.0333C21.0111 18.3889 21.3333 17.6 21.3333 16.6667C21.3333 15.7333 21.0111 14.9444 20.3667 14.3C19.7222 13.6556 18.9333 13.3333 18 13.3333C17.0667 13.3333 16.2778 13.6556 15.6333 14.3C14.9889 14.9444 14.6667 15.7333 14.6667 16.6667C14.6667 17.6 14.9889 18.3889 15.6333 19.0333C16.2778 19.6778 17.0667 20 18 20ZM2.66667 21.3333C1.93334 21.3333 1.30534 21.072 0.782669 20.5493C0.260002 20.0267 -0.000886625 19.3991 2.26373e-06 18.6667V17.6333C2.26373e-06 16.8778 0.188891 16.1778 0.566669 15.5333C0.944447 14.8889 1.46667 14.4 2.13334 14.0667C3.26667 13.4889 4.54445 13 5.96667 12.6C7.38889 12.2 8.96667 12 10.7 12C10.2556 12.6889 9.91645 13.428 9.68267 14.2173C9.44889 15.0067 9.33245 15.8231 9.33334 16.6667C9.33334 17.4889 9.45022 18.2947 9.684 19.084C9.91778 19.8733 10.256 20.6231 10.6987 21.3333H2.66667Z" fill="#19456B"/>
</svg>
